# xmcd
#
# Track frame offsets:
#	225
#	12137
#	25236
#	37801
#	54280
#	65766
#	76945
#	87691
#	102433
#	113184
#
# Disc length: 1745 seconds
#
# Revision: 1
# Processed by: cddbd v1.4PL0 Copyright (c) Steve Scherf et al.
# Submitted via: EasyCDDAExtractor 5.1.0
#
DISCID=7806ce0a
DTITLE=Jimmy Martin - Best of the Best ~ Jimmy Martin ~ King of Bluegrass
DYEAR=2000
DGENRE=Bluegrass
TTITLE0=Widow Maker
TTITLE1=Free Born Man
TTITLE2=Stormy Waters
TTITLE3=Honey You Don't Know My Mind
TTITLE4=Sunny Side Of The Mountain
TTITLE5=Truck Driving Man
TTITLE6=20/20 Vision
TTITLE7=Ocean Of Diamonds
TTITLE8=Run Pete Run
TTITLE9=Uncloudy Day
EXTD=This release:\n© 2000 King Records Nashville \nCatalog:  FED-CD-6556\nTot
EXTD=al disc time:  (10)  29:03\n\nSubmitted freedb 06/02/03\nprepaid@homemail
EXTD=com\nNo www.allmusic.com data available\n
EXTT0=
EXTT1=
EXTT2=
EXTT3=
EXTT4=
EXTT5=
EXTT6=
EXTT7=
EXTT8=
EXTT9=
PLAYORDER=
